<svg clip-rule="evenodd" fill-rule="evenodd" stroke-linejoin="round" stroke-miterlimit="2" viewBox="0 0 92 92" xmlns="http://www.w3.org/2000/svg"><g><circle cx="11.583" cy="9.854" r="9.079"/><circle cx="80.417" cy="9.854" r="9.079"/><path d="m0 34.016v31.655c0 3.65 2.736 6.721 6.363 7.14l12.14 1.402v17.013h14.375v-23.418c0-3.651-2.737-6.722-6.363-7.14l-12.14-1.402v-3.57c-1.151-.697-2.151-1.671-2.893-2.884z"/><path d="m92 34.016-11.482 18.796c-.729 1.192-1.726 2.175-2.893 2.883v3.571s-12.14 1.402-12.14 1.402c-3.626.418-6.363 3.489-6.363 7.14v23.418h14.375v-17.013s12.14-1.402 12.14-1.402c3.627-.419 6.363-3.49 6.363-7.14z"/><path d="m2.368 32.138 11.674 19.11c1.436 2.35 4.358 3.322 6.915 2.299l18.242-7.291c2.894-1.157 4.304-4.446 3.148-7.34-1.157-2.894-4.446-4.305-7.34-3.148l-13.813 5.522s-9.188-15.04-9.188-15.04c-1.625-2.659-5.103-3.5-7.763-1.875-2.659 1.625-3.5 5.104-1.875 7.763z"/><path d="m79.994 26.25-10.285 16.835s-15.225 2.153-15.225 2.153c-3.086.437-5.237 3.296-4.801 6.383.437 3.086 3.297 5.237 6.383 4.8l17.863-2.526c1.671-.236 3.149-1.207 4.029-2.647l11.674-19.11c1.625-2.659.784-6.138-1.875-7.763-2.66-1.625-6.138-.784-7.763 1.875z"/><path d="m58.669 3.774c0-.795-.316-1.558-.878-2.121-.563-.563-1.326-.879-2.122-.879-5.181 0-15.746 0-20.927 0-1.657 0-3 1.343-3 3v19.064c0 .392.229.748.586.911.356.162.775.101 1.071-.157 1.443-1.257 3.476-3.029 4.609-4.017.546-.476 1.246-.738 1.971-.738h15.69c.796 0 1.559-.316 2.122-.879.562-.562.878-1.326.878-2.121zm-20.146 10.262h6.683c.827 0 1.5-.672 1.5-1.5s-.673-1.5-1.5-1.5h-6.683c-.828 0-1.5.672-1.5 1.5s.672 1.5 1.5 1.5zm0-5.47h13.592c.828 0 1.5-.672 1.5-1.5s-.672-1.5-1.5-1.5h-13.592c-.828 0-1.5.672-1.5 1.5s.672 1.5 1.5 1.5z"/></g></svg>