<svg width="45" height="46" viewBox="0 0 45 46" fill="none" xmlns="http://www.w3.org/2000/svg">
<g clip-path="url(#clip0_11_128)">
<path fill-rule="evenodd" clip-rule="evenodd" d="M22.5001 45.5C34.9265 45.5 45.0001 35.4264 45.0001 23C45.0001 10.5736 34.9265 0.5 22.5001 0.5C10.0737 0.5 0.00012207 10.5736 0.00012207 23C0.00012207 35.4264 10.0737 45.5 22.5001 45.5Z" fill="#2CB1BC"/>
<path fill-rule="evenodd" clip-rule="evenodd" d="M11.2501 16.8515V29.5923C11.2501 30.2854 11.7575 30.8472 12.4564 30.8472H32.3406C33.0388 30.8472 33.5469 30.2789 33.5469 29.5923V16.8515C33.5469 16.0908 33.0925 15.5 32.3406 15.5H12.4564C11.6754 15.5 11.2501 16.1053 11.2501 16.8515ZM13.0835 17.9612C13.0835 17.6542 13.2693 17.4785 13.5662 17.4785C13.7498 17.4785 20.9752 22.0569 21.4129 22.3255L22.5437 23.0288C22.9022 22.7885 23.2622 22.5831 23.6338 22.3342C24.3923 21.8494 31.1408 17.4785 31.3267 17.4785C31.6242 17.4785 31.8093 17.6542 31.8093 17.9612C31.8093 18.2864 31.1829 18.6094 30.775 18.8583C28.2122 20.4202 25.6501 22.123 23.1127 23.743C22.9646 23.8431 22.6779 24.0573 22.4631 24.0246C22.2236 23.9876 14.8712 19.264 13.5335 18.4773C13.3325 18.359 13.0835 18.2508 13.0835 17.9612Z" fill="white"/>
</g>
<defs>
<clipPath id="clip0_11_128">
<rect width="45" height="45" fill="white" transform="translate(0.00012207 0.5)"/>
</clipPath>
</defs>
</svg>
