<svg id="Layer_1" viewBox="0 0 512 512" xmlns="http://www.w3.org/2000/svg" data-name="Layer 1"><path d="m430.503 110.78c-2.829-3.395-2.37-8.439 1.024-11.268 3.394-2.827 8.438-2.37 11.267 1.024 22.59 27.108 38.705 58.253 47.899 92.569 12.829 47.842 10.606 98.636-6.044 145.019-4.046-4.048-8.425-7.761-13.09-11.099 13.749-41.769 15.142-87.035 3.68-129.777-8.591-32.062-23.643-61.154-44.736-86.469zm-393.692 203.962c-32.363-120.868 39.63-245.555 160.482-277.948 65.14-17.459 133.311-5.409 188.416 32.984l-18.338 4.909c-4.269 1.143-6.802 5.528-5.659 9.796.957 3.576 4.189 5.934 7.723 5.934.685 0 1.381-.088 2.073-.274l38.125-10.205c2.05-.549 3.798-1.889 4.858-3.726 1.062-1.837 1.35-4.021.801-6.07l-10.205-38.126c-1.143-4.269-5.532-6.803-9.796-5.66-4.269 1.143-6.802 5.528-5.659 9.796l5.549 20.732c-27.238-18.989-58.471-32.438-90.883-39.035-37.013-7.533-74.408-6.358-111.147 3.49-62.675 16.799-115.061 56.998-147.507 113.19-32.446 56.194-41.072 121.664-24.286 184.358 9.238 34.369 25.363 65.521 47.927 92.592 1.583 1.898 3.857 2.878 6.149 2.878 1.807 0 3.623-.608 5.118-1.855 3.394-2.829 3.852-7.873 1.023-11.267-21.072-25.28-36.134-54.383-44.765-86.494zm290.239 156.791c-4.069 1.335-8.17 2.562-12.294 3.662-65.466 17.554-133.396 5.51-188.463-32.972l18.386-4.921c4.269-1.143 6.802-5.528 5.659-9.796-1.142-4.268-5.531-6.803-9.796-5.66l-38.126 10.205c-4.268 1.142-6.802 5.527-5.66 9.795l10.205 38.154c.957 3.576 4.189 5.936 7.724 5.935.684 0 1.38-.088 2.072-.273 4.268-1.142 6.803-5.527 5.661-9.795l-5.546-20.734c26.487 18.469 56.703 31.677 88.188 38.453 16.901 3.638 33.888 5.456 50.865 5.456 21.063 0 42.112-2.798 62.963-8.389 6.486-1.729 12.926-3.741 19.277-6.012-4.054-4.05-7.773-8.435-11.116-13.106zm106.288-242.411v53.773l-35.738 16.51-4.092 9.865c-42.85 7.481-76.737 41.359-84.22 84.197l-9.864 4.088-16.51 35.766h-53.776l-16.511-35.768-25.996-10.783-36.958 13.613-38.022-38.022 13.613-36.958-10.783-25.996-35.768-16.51v-53.777l35.766-16.51 10.785-26.024-13.613-36.958 38.022-38.022 36.958 13.612 25.997-10.784 16.512-35.738h53.772l16.511 35.737 26.025 10.786 36.959-13.613 38.022 38.022-13.613 36.958 10.785 26.025 35.737 16.51zm-99.354 26.887c0-42.987-34.973-77.959-77.959-77.959s-77.959 34.972-77.959 77.959 34.973 77.959 77.959 77.959 77.959-34.972 77.959-77.959zm-77.959-61.959c-34.164 0-61.959 27.794-61.959 61.959s27.795 61.959 61.959 61.959 61.959-27.794 61.959-61.959-27.795-61.959-61.959-61.959zm242.992 217.297c0 48.332-39.309 87.653-87.625 87.653s-87.653-39.321-87.653-87.653 39.321-87.625 87.653-87.625 87.625 39.309 87.625 87.625zm-49.918-29.068c-3.263-2.979-8.323-2.748-11.302.517l-36.757 40.279-16.417-15.792c-3.186-3.064-8.25-2.964-11.312.219-3.062 3.185-2.965 8.249.22 11.312l22.336 21.486c1.492 1.436 3.481 2.234 5.546 2.234.086 0 .174-.001.261-.004 2.156-.07 4.193-1.009 5.648-2.603l42.293-46.346c2.979-3.264 2.747-8.324-.517-11.302z"/></svg>