<svg width="41" height="42" viewBox="0 0 41 42" fill="none" xmlns="http://www.w3.org/2000/svg">
<g clip-path="url(#clip0_11_125)">
<path fill-rule="evenodd" clip-rule="evenodd" d="M20.7501 0.75C31.9264 0.75 41.0001 9.82374 41.0001 21C41.0001 32.1763 31.9264 41.25 20.7501 41.25C9.57386 41.25 0.500122 32.1763 0.500122 21C0.500122 9.82374 9.57386 0.75 20.7501 0.75ZM14.4191 32.3804V16.5664H9.16166V32.3804H14.4191ZM33.3734 32.3804V23.3117C33.3734 18.4542 30.7799 16.1945 27.3214 16.1945C24.5327 16.1945 23.2835 17.7282 22.5841 18.8054V16.5664H17.328C17.3977 18.0501 17.328 32.3804 17.328 32.3804H22.584V23.5487C22.584 23.076 22.618 22.6035 22.7573 22.2656C23.1366 21.3215 24.0021 20.3435 25.4543 20.3435C27.3554 20.3435 28.1171 21.7943 28.1171 23.9192V32.3804H33.3734ZM11.8259 8.94097C10.0271 8.94097 8.8519 10.1235 8.8519 11.6735C8.8519 13.1909 9.99136 14.406 11.7563 14.406H11.7902C13.6234 14.406 14.7644 13.1909 14.7644 11.6735C14.7304 10.1235 13.6235 8.94097 11.8259 8.94097Z" fill="#2CB1BC"/>
</g>
<defs>
<clipPath id="clip0_11_125">
<rect width="40.5" height="40.5" fill="white" transform="translate(0.500122 0.75)"/>
</clipPath>
</defs>
</svg>
