<?xml version="1.0" encoding="UTF-8"?>
<svg id="Layer_1" xmlns="http://www.w3.org/2000/svg" version="1.1" viewBox="0 0 571 161.6">
  <!-- Generator: Adobe Illustrator 29.3.1, SVG Export Plug-In . SVG Version: 2.1.0 Build 151)  -->
  <defs>
    <style>
      .st0 {
        fill: #fff;
      }
    </style>
  </defs>
  <g>
    <rect class="st0" x="28.9" y="49.9" width="30.4" height="30.4"/>
    <rect class="st0" x="45.8" width="13.6" height="13.6"/>
    <rect class="st0" x="32.3" y="13.6" width="13.4" height="13.4"/>
    <rect class="st0" x="59.3" y="13.6" width="36.4" height="36.4"/>
    <g>
      <path class="st0" d="M89.8,95.4v-20.4l-30.4,5.4v31c10.2-4.4,20.5-9.9,30.4-15.9Z"/>
      <path class="st0" d="M59.3,128.3v6.9l-21.2,26.4h30.4l21.2-26.4v-20.7c-10,5.4-20.4,10.1-30.4,13.9Z"/>
    </g>
    <g>
      <path class="st0" d="M126.1,68.3v-23.7l-30.4,5.4v41.8c11.2-7.3,21.7-15.3,30.4-23.4Z"/>
      <path class="st0" d="M95.7,111.2v24l-21.2,26.4h30.4l21.2-26.4v-44c-9.2,7.1-19.6,13.9-30.4,20Z"/>
    </g>
    <path class="st0" d="M21.8,89.3c-4.1,4.3-7.9,8.8-11.3,13.7-3.1,4.7-6.4,9.9-7,15.5-1.6,22,48.8,2.9,59-2.1,21.4-9.5,41.9-21.6,60.3-36.2,6.9-5.4,13.4-11.3,19.1-17.9,26.9-31.2-3.9-31.4-28.7-25.1-2.9.7-5.8,1.5-8.6,2.3,12.6-5.1,30.8-11.7,44.2-7.2,11.9,4.6,8.1,17.7,2.7,26-6.6,10.4-15.5,18.8-24.8,26.7-23.4,19-50.1,34.1-78.8,43.3-12,3.5-27.7,7.6-39.8,3.2-20.4-9.5,3.7-33.9,13.9-42.2h0Z"/>
  </g>
  <g>
    <g>
      <path class="st0" d="M172.8,121.2c0,9-1.2,16.1-13.1,16.1s-3.6-.2-5.3-.5v-8.8c.9.1,1.7.2,3.1.2,3.6,0,4.9-1,4.9-5.8v-53.1h10.4v51.8Z"/>
      <path class="st0" d="M213.1,87.2v31.3c0,12.9-5.5,18.9-16.8,18.9s-15.8-6.2-15.8-18.8v-31.6c0-12.9,6.5-18.7,16.5-18.7s16.2,5.9,16.2,18.8ZM191,86.1v33.8c0,5.6,2,8.2,5.7,8.2s5.8-2.4,5.8-8.3v-33.7c0-5.3-1.6-8.3-5.8-8.3s-5.7,2.7-5.7,8.3Z"/>
      <path class="st0" d="M245.8,105.8h-14.8v21.1h17l-1.3,9.5h-26v-67.1h25.9v9.6h-15.6v17.3h14.8v9.5Z"/>
      <path class="st0" d="M253,69.3h10.4v57.9h16.9l-.9,9.3h-26.3v-67.1Z"/>
      <path class="st0" d="M302,121.2c0,9-1.2,16.1-13.1,16.1s-3.6-.2-5.3-.5v-8.8c.9.1,1.7.2,3.1.2,3.6,0,4.9-1,4.9-5.8v-53.1h10.4v51.8Z"/>
      <path class="st0" d="M342.3,87.2v31.3c0,12.9-5.5,18.9-16.8,18.9s-15.8-6.2-15.8-18.8v-31.6c0-12.9,6.5-18.7,16.5-18.7s16.2,5.9,16.2,18.8ZM320.2,86.1v33.8c0,5.6,2,8.2,5.7,8.2s5.8-2.4,5.8-8.3v-33.7c0-5.3-1.6-8.3-5.8-8.3s-5.7,2.7-5.7,8.3Z"/>
      <path class="st0" d="M349.9,69.3h10.4v26.5h11.1v-26.5h10.4v67.1h-10.4v-31.1h-11.1v31.1h-10.4v-67.1Z"/>
      <path class="st0" d="M390.8,136.5v-67.1h12c2.7,9.5,10.7,42.6,11.4,46.2h.1c-.5-8.3-.5-17.7-.5-28.7v-17.4h9.6v67.1h-11.5c-2.1-8-11-44.8-11.7-47.6h-.1c.5,8.1.5,17.2.5,29.3v18.4h-9.6Z"/>
      <path class="st0" d="M439.7,116.7v4.1c0,5,1.5,7.8,5.4,7.8s5.1-3.8,5.1-8.2c0-7.2-1.6-9.5-8.8-15.1-7.2-5.7-11.1-9.3-11.1-19.3s2.7-17.8,14.8-17.8c12.4,0,14.3,8.8,14.3,16.1v3.6h-10.3v-3.3c0-4.7-.8-7.5-4.2-7.5s-4.3,2.9-4.3,7.4.9,7.1,6.8,11.4c10,7.4,13.1,11.7,13.1,23s-3.3,18.5-15.9,18.5-15.4-7.9-15.4-16.8v-4h10.4Z"/>
      <path class="st0" d="M473.8,79h-10.8v-9.6h32v9.6h-10.8v57.5h-10.4v-57.5Z"/>
      <path class="st0" d="M530.8,87.2v31.3c0,12.9-5.5,18.9-16.8,18.9s-15.8-6.2-15.8-18.8v-31.6c0-12.9,6.5-18.7,16.5-18.7s16.2,5.9,16.2,18.8ZM508.6,86.1v33.8c0,5.6,2,8.2,5.7,8.2s5.8-2.4,5.8-8.3v-33.7c0-5.3-1.6-8.3-5.8-8.3s-5.7,2.7-5.7,8.3Z"/>
      <path class="st0" d="M538.4,136.5v-67.1h12c2.7,9.5,10.7,42.6,11.4,46.2h.1c-.5-8.3-.5-17.7-.5-28.7v-17.4h9.6v67.1h-11.5c-2.1-8-11-44.8-11.7-47.6h-.1c.5,8.1.5,17.2.5,29.3v18.4h-9.6Z"/>
    </g>
    <g>
      <path class="st0" d="M302,121.2c0,9-1.2,16.1-13.1,16.1s-3.6-.2-5.3-.5v-8.8c.9.1,1.7.2,3.1.2,3.6,0,4.9-1,4.9-5.8v-53.1h10.4v51.8Z"/>
      <path class="st0" d="M342.3,87.2v31.3c0,12.9-5.5,18.9-16.8,18.9s-15.8-6.2-15.8-18.8v-31.6c0-12.9,6.5-18.7,16.5-18.7s16.2,5.9,16.2,18.8ZM320.2,86.1v33.8c0,5.6,2,8.2,5.7,8.2s5.8-2.4,5.8-8.3v-33.7c0-5.3-1.6-8.3-5.8-8.3s-5.7,2.7-5.7,8.3Z"/>
      <path class="st0" d="M349.9,69.3h10.4v26.5h11.1v-26.5h10.4v67.1h-10.4v-31.1h-11.1v31.1h-10.4v-67.1Z"/>
      <path class="st0" d="M390.8,136.5v-67.1h12c2.7,9.5,10.7,42.6,11.4,46.2h.1c-.5-8.3-.5-17.7-.5-28.7v-17.4h9.6v67.1h-11.5c-2.1-8-11-44.8-11.7-47.6h-.1c.5,8.1.5,17.2.5,29.3v18.4h-9.6Z"/>
      <path class="st0" d="M439.7,116.7v4.1c0,5,1.5,7.8,5.4,7.8s5.1-3.8,5.1-8.2c0-7.2-1.6-9.5-8.8-15.1-7.2-5.7-11.1-9.3-11.1-19.3s2.7-17.8,14.8-17.8c12.4,0,14.3,8.8,14.3,16.1v3.6h-10.3v-3.3c0-4.7-.8-7.5-4.2-7.5s-4.3,2.9-4.3,7.4.9,7.1,6.8,11.4c10,7.4,13.1,11.7,13.1,23s-3.3,18.5-15.9,18.5-15.4-7.9-15.4-16.8v-4h10.4Z"/>
      <path class="st0" d="M473.8,79h-10.8v-9.6h32v9.6h-10.8v57.5h-10.4v-57.5Z"/>
      <path class="st0" d="M530.8,87.2v31.3c0,12.9-5.5,18.9-16.8,18.9s-15.8-6.2-15.8-18.8v-31.6c0-12.9,6.5-18.7,16.5-18.7s16.2,5.9,16.2,18.8ZM508.6,86.1v33.8c0,5.6,2,8.2,5.7,8.2s5.8-2.4,5.8-8.3v-33.7c0-5.3-1.6-8.3-5.8-8.3s-5.7,2.7-5.7,8.3Z"/>
      <path class="st0" d="M538.4,136.5v-67.1h12c2.7,9.5,10.7,42.6,11.4,46.2h.1c-.5-8.3-.5-17.7-.5-28.7v-17.4h9.6v67.1h-11.5c-2.1-8-11-44.8-11.7-47.6h-.1c.5,8.1.5,17.2.5,29.3v18.4h-9.6Z"/>
    </g>
  </g>
</svg>