<svg id="Capa_1" enable-background="new 0 0 512 512" height="512" viewBox="0 0 512 512" width="512" xmlns="http://www.w3.org/2000/svg"><g><path d="m501.997 150.542-17.32-10c-9.566-5.523-21.798-2.245-27.32 7.321l-25 43.301 51.961 30 25-43.301c5.522-9.566 2.245-21.798-7.321-27.321z"/><path d="m333.576 362.256c-.73 1.264-1.271 2.628-1.607 4.049l-14.31 60.533c-2.739 11.585 11.245 19.658 19.908 11.494l45.268-42.659c1.062-1.001 1.973-2.152 2.703-3.417l83.78-145.112-51.962-30z"/><path d="m403.407 417.508-45.265 42.657c-7.86 7.407-18.054 11.486-28.699 11.486-.003 0-.004 0-.006 0-12.794-.002-25.188-6.014-33.152-16.083-3.248-4.106-5.629-8.707-7.124-13.567h-127.161c-8.284 0-15-6.716-15-15s6.716-15 15-15h128.339l12.434-52.596c1.007-4.26 2.628-8.344 4.816-12.139l72.323-125.266h-213.37l-56.221-37.481c-9.968-6.645-23.321.501-23.321 12.481v260c0 30.376 24.624 55 55 55h228c30.376 0 55-24.624 55-55v-73.096l-13.482 23.352c-2.195 3.801-4.923 7.248-8.111 10.252zm-241.407-125.508h108c8.284 0 15 6.716 15 15s-6.716 15-15 15h-108c-8.284 0-15-6.716-15-15s6.716-15 15-15zm0 60h108c8.284 0 15 6.716 15 15s-6.716 15-15 15h-108c-8.284 0-15-6.716-15-15s6.716-15 15-15z"/><path d="m107.822 137.606c2.729 0 5.445-.848 7.739-2.514 4.054-2.945 6.084-7.936 5.237-12.874l-5.736-33.441 24.296-23.683c3.588-3.497 4.879-8.728 3.331-13.494-1.548-4.765-5.668-8.238-10.626-8.959l-33.576-4.878-15.016-30.425c-2.218-4.493-6.794-7.338-11.805-7.338-5.01 0-9.587 2.845-11.804 7.337l-15.015 30.426-33.576 4.878c-4.958.721-9.078 4.194-10.626 8.959-1.549 4.765-.257 9.996 3.331 13.494l24.296 23.683-5.736 33.441c-.847 4.938 1.183 9.929 5.237 12.874 4.053 2.945 9.428 3.333 13.862 1.002l30.031-15.789 30.032 15.789c1.926 1.013 4.029 1.512 6.124 1.512z"/><path d="m186.605 88.777-5.735 33.441c-.847 4.938 1.183 9.929 5.237 12.874s9.428 3.333 13.862 1.002l30.031-15.789 30.032 15.789c4.421 2.326 9.801 1.95 13.862-1.002 4.054-2.945 6.084-7.936 5.237-12.874l-5.736-33.441 24.296-23.683c3.588-3.497 4.88-8.728 3.331-13.494s-5.667-8.238-10.626-8.959l-33.577-4.878-15.015-30.425c-2.217-4.493-6.793-7.338-11.804-7.338-5.01 0-9.587 2.845-11.804 7.337l-15.016 30.426-33.576 4.878c-4.958.721-9.078 4.194-10.626 8.959-1.549 4.765-.257 9.996 3.331 13.494z"/><path d="m344.939 88.778-5.736 33.441c-.847 4.938 1.183 9.929 5.237 12.874 4.053 2.945 9.425 3.334 13.862 1.002l30.031-15.789 30.031 15.789c4.421 2.326 9.801 1.95 13.863-1.002 4.053-2.945 6.084-7.936 5.237-12.874l-5.735-33.441 24.296-23.683c3.587-3.497 4.879-8.728 3.33-13.494-1.549-4.765-5.667-8.238-10.626-8.959l-33.577-4.878-15.014-30.426c-2.218-4.493-6.794-7.338-11.804-7.338s-9.586 2.845-11.804 7.338l-15.015 30.425-33.577 4.878c-4.958.721-9.077 4.194-10.626 8.959s-.257 9.996 3.33 13.494z"/></g></svg>