<svg width="41" height="42" viewBox="0 0 41 42" fill="none" xmlns="http://www.w3.org/2000/svg">
<path d="M28.0584 17.5738C25.8362 17.5738 25.1219 19.7167 24.9632 20.9865V21.0659L24.6458 22.2563C25.5981 23.05 26.7886 23.6056 27.9791 23.6056C29.5664 23.6056 30.995 22.2563 31.0743 20.5103C31.0743 18.923 29.7251 17.5738 28.0584 17.5738Z" fill="#2CB1BC"/>
<path d="M20.6471 0.75C9.67998 0.75 0.794189 9.81351 0.794189 21C0.794189 32.1865 9.67998 41.25 20.6471 41.25C31.6143 41.25 40.5001 32.1865 40.5001 21C40.5001 9.81351 31.6143 0.75 20.6471 0.75ZM28.5723 27.2056C26.9713 27.2056 25.6104 26.7157 24.4096 25.9808L23.0487 32.5131H19.9267L21.8479 23.5312C21.0474 22.3881 20.2469 21.0817 19.6865 19.8569V21.245C19.6865 24.5927 17.0448 27.2873 13.8427 27.2873C10.6406 27.2873 7.99889 24.5927 7.99889 21.245V13.0796H11.0409V21.245C11.0409 22.878 12.3217 24.1845 13.9227 24.1845C15.5238 24.1845 16.8046 22.878 16.8046 21.245V13.0796H19.8466C20.487 15.121 21.5277 17.5706 22.8886 19.7752C23.6891 16.6724 25.9306 14.7944 28.7324 14.7944C32.0145 14.7944 34.7363 17.5706 34.7363 20.9183C34.5762 24.4294 31.8544 27.2056 28.5723 27.2056Z" fill="#2CB1BC"/>
</svg>
